<mxfile host="app.diagrams.net" modified="2023-06-12T14:19:01.331Z" agent="Mozilla/5.0 (Windows NT 10.0; Win64; x64) AppleWebKit/537.36 (KHTML, like Gecko) Chrome/113.0.0.0 Safari/537.36" etag="VqNPRXvbHuFRF_tQ4u_Z" version="21.3.8" type="github">
  <diagram name="第 1 页" id="z__LlguUlQJ8tJPs_sTK">
    <mxGraphModel dx="1018" dy="625" grid="0" gridSize="10" guides="1" tooltips="1" connect="1" arrows="1" fold="1" page="1" pageScale="1" pageWidth="3300" pageHeight="4681" math="0" shadow="0">
      <root>
        <mxCell id="0" />
        <mxCell id="1" parent="0" />
        <mxCell id="PiPtO8VSAvtlJHLGq4BD-44" value="" style="rounded=0;whiteSpace=wrap;html=1;fillColor=#d5e8d4;strokeColor=#82b366;" vertex="1" parent="1">
          <mxGeometry x="1582" y="2737" width="594" height="660.5" as="geometry" />
        </mxCell>
        <mxCell id="PiPtO8VSAvtlJHLGq4BD-43" value="" style="rounded=0;whiteSpace=wrap;html=1;fillColor=#fff2cc;strokeColor=#d6b656;" vertex="1" parent="1">
          <mxGeometry x="988" y="2737" width="594" height="660.5" as="geometry" />
        </mxCell>
        <mxCell id="PiPtO8VSAvtlJHLGq4BD-42" value="" style="rounded=0;whiteSpace=wrap;html=1;fillColor=#dae8fc;strokeColor=#6c8ebf;" vertex="1" parent="1">
          <mxGeometry x="573" y="2737" width="415" height="660.5" as="geometry" />
        </mxCell>
        <mxCell id="7cmU4bMO7A-qSsY_zn1Z-103" value="" style="rounded=0;whiteSpace=wrap;html=1;fillColor=#dae8fc;strokeColor=#6c8ebf;" parent="1" vertex="1">
          <mxGeometry x="1037" y="1598" width="659" height="885" as="geometry" />
        </mxCell>
        <mxCell id="7cmU4bMO7A-qSsY_zn1Z-62" value="" style="rounded=0;whiteSpace=wrap;html=1;fillColor=#f8cecc;strokeColor=#b85450;" parent="1" vertex="1">
          <mxGeometry x="920" y="380" width="240" height="588.75" as="geometry" />
        </mxCell>
        <mxCell id="7cmU4bMO7A-qSsY_zn1Z-61" value="" style="rounded=0;whiteSpace=wrap;html=1;" parent="1" vertex="1">
          <mxGeometry x="690" y="380" width="230" height="588.75" as="geometry" />
        </mxCell>
        <mxCell id="7cmU4bMO7A-qSsY_zn1Z-60" value="" style="rounded=0;whiteSpace=wrap;html=1;fillColor=#dae8fc;strokeColor=#6c8ebf;" parent="1" vertex="1">
          <mxGeometry x="410" y="380" width="280" height="588.75" as="geometry" />
        </mxCell>
        <mxCell id="7cmU4bMO7A-qSsY_zn1Z-1" value="" style="rounded=0;whiteSpace=wrap;html=1;" parent="1" vertex="1">
          <mxGeometry x="460" y="450" width="180" height="210" as="geometry" />
        </mxCell>
        <mxCell id="7cmU4bMO7A-qSsY_zn1Z-2" value="Login.jsp" style="text;html=1;strokeColor=none;fillColor=none;align=center;verticalAlign=middle;whiteSpace=wrap;rounded=0;" parent="1" vertex="1">
          <mxGeometry x="520" y="420" width="60" height="30" as="geometry" />
        </mxCell>
        <mxCell id="7cmU4bMO7A-qSsY_zn1Z-3" value="" style="endArrow=none;html=1;rounded=0;exitX=0;exitY=0.5;exitDx=0;exitDy=0;entryX=1;entryY=0.5;entryDx=0;entryDy=0;" parent="1" source="7cmU4bMO7A-qSsY_zn1Z-1" target="7cmU4bMO7A-qSsY_zn1Z-1" edge="1">
          <mxGeometry width="50" height="50" relative="1" as="geometry">
            <mxPoint x="800" y="730" as="sourcePoint" />
            <mxPoint x="850" y="680" as="targetPoint" />
          </mxGeometry>
        </mxCell>
        <mxCell id="7cmU4bMO7A-qSsY_zn1Z-7" style="edgeStyle=orthogonalEdgeStyle;rounded=0;orthogonalLoop=1;jettySize=auto;html=1;entryX=0;entryY=0.25;entryDx=0;entryDy=0;strokeColor=#2D26FF;" parent="1" source="7cmU4bMO7A-qSsY_zn1Z-4" target="7cmU4bMO7A-qSsY_zn1Z-5" edge="1">
          <mxGeometry relative="1" as="geometry" />
        </mxCell>
        <mxCell id="7cmU4bMO7A-qSsY_zn1Z-4" value="传递数据" style="text;html=1;strokeColor=none;fillColor=none;align=center;verticalAlign=middle;whiteSpace=wrap;rounded=0;" parent="1" vertex="1">
          <mxGeometry x="520" y="495" width="60" height="30" as="geometry" />
        </mxCell>
        <mxCell id="7cmU4bMO7A-qSsY_zn1Z-5" value="" style="rounded=1;whiteSpace=wrap;html=1;" parent="1" vertex="1">
          <mxGeometry x="740" y="460" width="120" height="200" as="geometry" />
        </mxCell>
        <mxCell id="7cmU4bMO7A-qSsY_zn1Z-8" value="LoginServlet" style="text;html=1;strokeColor=none;fillColor=none;align=center;verticalAlign=middle;whiteSpace=wrap;rounded=0;" parent="1" vertex="1">
          <mxGeometry x="770" y="420" width="60" height="30" as="geometry" />
        </mxCell>
        <mxCell id="7cmU4bMO7A-qSsY_zn1Z-10" value="UserDAO.java" style="text;html=1;strokeColor=none;fillColor=none;align=center;verticalAlign=middle;whiteSpace=wrap;rounded=0;" parent="1" vertex="1">
          <mxGeometry x="1010" y="480" width="60" height="30" as="geometry" />
        </mxCell>
        <mxCell id="7cmU4bMO7A-qSsY_zn1Z-12" value="判断是否登录成功validate()" style="rounded=1;whiteSpace=wrap;html=1;" parent="1" vertex="1">
          <mxGeometry x="980" y="515" width="120" height="90" as="geometry" />
        </mxCell>
        <mxCell id="7cmU4bMO7A-qSsY_zn1Z-13" value="" style="rounded=0;whiteSpace=wrap;html=1;fillColor=#d5e8d4;strokeColor=#82b366;" parent="1" vertex="1">
          <mxGeometry x="1190" y="510" width="160" height="390" as="geometry" />
        </mxCell>
        <mxCell id="7cmU4bMO7A-qSsY_zn1Z-14" value="Users" style="rounded=1;whiteSpace=wrap;html=1;" parent="1" vertex="1">
          <mxGeometry x="1210" y="525" width="120" height="105" as="geometry" />
        </mxCell>
        <mxCell id="7cmU4bMO7A-qSsY_zn1Z-15" value="UserComments" style="rounded=1;whiteSpace=wrap;html=1;" parent="1" vertex="1">
          <mxGeometry x="1210" y="651.25" width="120" height="107.5" as="geometry" />
        </mxCell>
        <mxCell id="7cmU4bMO7A-qSsY_zn1Z-16" value="Feedback" style="rounded=1;whiteSpace=wrap;html=1;" parent="1" vertex="1">
          <mxGeometry x="1210" y="780" width="120" height="107.5" as="geometry" />
        </mxCell>
        <mxCell id="7cmU4bMO7A-qSsY_zn1Z-17" value="" style="endArrow=classic;startArrow=classic;html=1;rounded=0;exitX=1;exitY=0.5;exitDx=0;exitDy=0;entryX=0.008;entryY=0.34;entryDx=0;entryDy=0;entryPerimeter=0;" parent="1" source="7cmU4bMO7A-qSsY_zn1Z-12" target="7cmU4bMO7A-qSsY_zn1Z-14" edge="1">
          <mxGeometry width="50" height="50" relative="1" as="geometry">
            <mxPoint x="920" y="780" as="sourcePoint" />
            <mxPoint x="1190" y="560" as="targetPoint" />
          </mxGeometry>
        </mxCell>
        <mxCell id="7cmU4bMO7A-qSsY_zn1Z-18" value="" style="endArrow=classic;html=1;rounded=0;exitX=1;exitY=0.25;exitDx=0;exitDy=0;entryX=0;entryY=0.25;entryDx=0;entryDy=0;strokeColor=#2E1FFF;" parent="1" source="7cmU4bMO7A-qSsY_zn1Z-5" target="7cmU4bMO7A-qSsY_zn1Z-12" edge="1">
          <mxGeometry width="50" height="50" relative="1" as="geometry">
            <mxPoint x="910" y="780" as="sourcePoint" />
            <mxPoint x="960" y="730" as="targetPoint" />
          </mxGeometry>
        </mxCell>
        <mxCell id="7cmU4bMO7A-qSsY_zn1Z-20" value="创造对象，调用函数" style="text;html=1;strokeColor=none;fillColor=none;align=center;verticalAlign=middle;whiteSpace=wrap;rounded=0;" parent="1" vertex="1">
          <mxGeometry x="880" y="485" width="60" height="30" as="geometry" />
        </mxCell>
        <mxCell id="7cmU4bMO7A-qSsY_zn1Z-24" value="loginState&lt;br&gt;1：登录成功&lt;br&gt;0：登录失败" style="rounded=1;whiteSpace=wrap;html=1;" parent="1" vertex="1">
          <mxGeometry x="745" y="571.25" width="110" height="80" as="geometry" />
        </mxCell>
        <mxCell id="7cmU4bMO7A-qSsY_zn1Z-26" value="xmlhttp.&lt;br&gt;onreadystatechange=function()，&lt;br&gt;服务器返回loginState信息后进行判断和页面更新" style="text;html=1;strokeColor=none;fillColor=none;align=center;verticalAlign=middle;whiteSpace=wrap;rounded=0;" parent="1" vertex="1">
          <mxGeometry x="482.5" y="540" width="135" height="130" as="geometry" />
        </mxCell>
        <mxCell id="7cmU4bMO7A-qSsY_zn1Z-27" value="" style="endArrow=classic;html=1;rounded=0;exitX=0;exitY=0.75;exitDx=0;exitDy=0;entryX=1;entryY=0.5;entryDx=0;entryDy=0;" parent="1" source="7cmU4bMO7A-qSsY_zn1Z-12" target="7cmU4bMO7A-qSsY_zn1Z-24" edge="1">
          <mxGeometry width="50" height="50" relative="1" as="geometry">
            <mxPoint x="910" y="780" as="sourcePoint" />
            <mxPoint x="960" y="730" as="targetPoint" />
          </mxGeometry>
        </mxCell>
        <mxCell id="7cmU4bMO7A-qSsY_zn1Z-28" value="判断后更新loginState" style="text;html=1;strokeColor=none;fillColor=none;align=center;verticalAlign=middle;whiteSpace=wrap;rounded=0;" parent="1" vertex="1">
          <mxGeometry x="880" y="605" width="80" height="30" as="geometry" />
        </mxCell>
        <mxCell id="7cmU4bMO7A-qSsY_zn1Z-30" value="" style="endArrow=classic;html=1;rounded=0;exitX=0;exitY=0.75;exitDx=0;exitDy=0;" parent="1" source="7cmU4bMO7A-qSsY_zn1Z-5" edge="1">
          <mxGeometry width="50" height="50" relative="1" as="geometry">
            <mxPoint x="910" y="780" as="sourcePoint" />
            <mxPoint x="640" y="610" as="targetPoint" />
          </mxGeometry>
        </mxCell>
        <mxCell id="7cmU4bMO7A-qSsY_zn1Z-57" style="edgeStyle=orthogonalEdgeStyle;rounded=0;orthogonalLoop=1;jettySize=auto;html=1;exitX=1;exitY=0.5;exitDx=0;exitDy=0;entryX=0;entryY=0.5;entryDx=0;entryDy=0;" parent="1" source="7cmU4bMO7A-qSsY_zn1Z-31" target="7cmU4bMO7A-qSsY_zn1Z-34" edge="1">
          <mxGeometry relative="1" as="geometry" />
        </mxCell>
        <mxCell id="7cmU4bMO7A-qSsY_zn1Z-31" value="评论界面&lt;br&gt;发表留言、回复留言、留言维护等功能" style="rounded=0;whiteSpace=wrap;html=1;" parent="1" vertex="1">
          <mxGeometry x="460" y="720" width="180" height="210" as="geometry" />
        </mxCell>
        <mxCell id="7cmU4bMO7A-qSsY_zn1Z-32" value="Comment.jsp" style="text;html=1;strokeColor=none;fillColor=none;align=center;verticalAlign=middle;whiteSpace=wrap;rounded=0;" parent="1" vertex="1">
          <mxGeometry x="520" y="690" width="60" height="30" as="geometry" />
        </mxCell>
        <mxCell id="7cmU4bMO7A-qSsY_zn1Z-33" value="AddCommentServlet" style="rounded=1;whiteSpace=wrap;html=1;" parent="1" vertex="1">
          <mxGeometry x="740" y="730" width="120" height="40" as="geometry" />
        </mxCell>
        <mxCell id="7cmU4bMO7A-qSsY_zn1Z-34" value="AddFeedbackServlet" style="rounded=1;whiteSpace=wrap;html=1;" parent="1" vertex="1">
          <mxGeometry x="740" y="880" width="120" height="40" as="geometry" />
        </mxCell>
        <mxCell id="7cmU4bMO7A-qSsY_zn1Z-35" value="ComDataUpdate" style="rounded=1;whiteSpace=wrap;html=1;" parent="1" vertex="1">
          <mxGeometry x="740" y="830" width="120" height="40" as="geometry" />
        </mxCell>
        <mxCell id="7cmU4bMO7A-qSsY_zn1Z-36" value="DeleteCommentServlet&lt;br&gt;" style="rounded=1;whiteSpace=wrap;html=1;" parent="1" vertex="1">
          <mxGeometry x="740" y="780" width="120" height="40" as="geometry" />
        </mxCell>
        <mxCell id="7cmU4bMO7A-qSsY_zn1Z-37" value="FeedbackDAO" style="rounded=1;whiteSpace=wrap;html=1;" parent="1" vertex="1">
          <mxGeometry x="980" y="805" width="120" height="90" as="geometry" />
        </mxCell>
        <mxCell id="7cmU4bMO7A-qSsY_zn1Z-38" value="CommentDAO" style="rounded=1;whiteSpace=wrap;html=1;" parent="1" vertex="1">
          <mxGeometry x="980" y="660" width="120" height="90" as="geometry" />
        </mxCell>
        <mxCell id="7cmU4bMO7A-qSsY_zn1Z-39" value="" style="endArrow=classic;startArrow=classic;html=1;rounded=0;exitX=1;exitY=0.5;exitDx=0;exitDy=0;entryX=0;entryY=0.25;entryDx=0;entryDy=0;" parent="1" source="7cmU4bMO7A-qSsY_zn1Z-33" target="7cmU4bMO7A-qSsY_zn1Z-38" edge="1">
          <mxGeometry width="50" height="50" relative="1" as="geometry">
            <mxPoint x="1000" y="960" as="sourcePoint" />
            <mxPoint x="960" y="830" as="targetPoint" />
          </mxGeometry>
        </mxCell>
        <mxCell id="7cmU4bMO7A-qSsY_zn1Z-40" value="" style="endArrow=classic;startArrow=classic;html=1;rounded=0;entryX=0;entryY=0.25;entryDx=0;entryDy=0;exitX=1;exitY=0.75;exitDx=0;exitDy=0;" parent="1" source="7cmU4bMO7A-qSsY_zn1Z-36" target="7cmU4bMO7A-qSsY_zn1Z-37" edge="1">
          <mxGeometry width="50" height="50" relative="1" as="geometry">
            <mxPoint x="870" y="820" as="sourcePoint" />
            <mxPoint x="1050" y="910" as="targetPoint" />
          </mxGeometry>
        </mxCell>
        <mxCell id="7cmU4bMO7A-qSsY_zn1Z-41" value="" style="endArrow=classic;startArrow=classic;html=1;rounded=0;exitX=1;exitY=0.25;exitDx=0;exitDy=0;entryX=0;entryY=0.5;entryDx=0;entryDy=0;" parent="1" source="7cmU4bMO7A-qSsY_zn1Z-36" target="7cmU4bMO7A-qSsY_zn1Z-38" edge="1">
          <mxGeometry width="50" height="50" relative="1" as="geometry">
            <mxPoint x="1000" y="960" as="sourcePoint" />
            <mxPoint x="1050" y="910" as="targetPoint" />
          </mxGeometry>
        </mxCell>
        <mxCell id="7cmU4bMO7A-qSsY_zn1Z-42" value="" style="endArrow=classic;startArrow=classic;html=1;rounded=0;entryX=0;entryY=0.5;entryDx=0;entryDy=0;exitX=1;exitY=0.75;exitDx=0;exitDy=0;" parent="1" source="7cmU4bMO7A-qSsY_zn1Z-35" target="7cmU4bMO7A-qSsY_zn1Z-37" edge="1">
          <mxGeometry width="50" height="50" relative="1" as="geometry">
            <mxPoint x="880" y="870" as="sourcePoint" />
            <mxPoint x="1050" y="910" as="targetPoint" />
          </mxGeometry>
        </mxCell>
        <mxCell id="7cmU4bMO7A-qSsY_zn1Z-43" value="" style="endArrow=classic;startArrow=classic;html=1;rounded=0;exitX=1;exitY=0.25;exitDx=0;exitDy=0;entryX=0;entryY=0.75;entryDx=0;entryDy=0;" parent="1" source="7cmU4bMO7A-qSsY_zn1Z-35" target="7cmU4bMO7A-qSsY_zn1Z-38" edge="1">
          <mxGeometry width="50" height="50" relative="1" as="geometry">
            <mxPoint x="1000" y="960" as="sourcePoint" />
            <mxPoint x="1050" y="910" as="targetPoint" />
          </mxGeometry>
        </mxCell>
        <mxCell id="7cmU4bMO7A-qSsY_zn1Z-44" value="" style="endArrow=classic;startArrow=classic;html=1;rounded=0;exitX=1;exitY=0.5;exitDx=0;exitDy=0;entryX=0;entryY=0.75;entryDx=0;entryDy=0;" parent="1" source="7cmU4bMO7A-qSsY_zn1Z-34" target="7cmU4bMO7A-qSsY_zn1Z-37" edge="1">
          <mxGeometry width="50" height="50" relative="1" as="geometry">
            <mxPoint x="1000" y="960" as="sourcePoint" />
            <mxPoint x="1050" y="910" as="targetPoint" />
          </mxGeometry>
        </mxCell>
        <mxCell id="7cmU4bMO7A-qSsY_zn1Z-45" value="" style="endArrow=classic;startArrow=classic;html=1;rounded=0;exitX=1;exitY=0.5;exitDx=0;exitDy=0;entryX=0;entryY=0.5;entryDx=0;entryDy=0;" parent="1" source="7cmU4bMO7A-qSsY_zn1Z-38" target="7cmU4bMO7A-qSsY_zn1Z-15" edge="1">
          <mxGeometry width="50" height="50" relative="1" as="geometry">
            <mxPoint x="750" y="1190" as="sourcePoint" />
            <mxPoint x="800" y="1140" as="targetPoint" />
          </mxGeometry>
        </mxCell>
        <mxCell id="7cmU4bMO7A-qSsY_zn1Z-46" value="" style="endArrow=classic;startArrow=classic;html=1;rounded=0;entryX=-0.003;entryY=0.435;entryDx=0;entryDy=0;entryPerimeter=0;" parent="1" edge="1">
          <mxGeometry width="50" height="50" relative="1" as="geometry">
            <mxPoint x="1100" y="851" as="sourcePoint" />
            <mxPoint x="1210" y="850.5" as="targetPoint" />
          </mxGeometry>
        </mxCell>
        <mxCell id="7cmU4bMO7A-qSsY_zn1Z-47" value="DataBase" style="text;html=1;strokeColor=none;fillColor=none;align=center;verticalAlign=middle;whiteSpace=wrap;rounded=0;" parent="1" vertex="1">
          <mxGeometry x="1240" y="480" width="60" height="30" as="geometry" />
        </mxCell>
        <mxCell id="7cmU4bMO7A-qSsY_zn1Z-56" value="" style="endArrow=classic;startArrow=classic;html=1;rounded=0;exitX=0;exitY=0.5;exitDx=0;exitDy=0;entryX=1;entryY=0.5;entryDx=0;entryDy=0;" parent="1" source="7cmU4bMO7A-qSsY_zn1Z-33" target="7cmU4bMO7A-qSsY_zn1Z-31" edge="1">
          <mxGeometry width="50" height="50" relative="1" as="geometry">
            <mxPoint x="800" y="860" as="sourcePoint" />
            <mxPoint x="850" y="810" as="targetPoint" />
            <Array as="points">
              <mxPoint x="690" y="750" />
              <mxPoint x="690" y="825" />
            </Array>
          </mxGeometry>
        </mxCell>
        <mxCell id="7cmU4bMO7A-qSsY_zn1Z-58" value="" style="endArrow=classic;html=1;rounded=0;entryX=0;entryY=0.5;entryDx=0;entryDy=0;" parent="1" target="7cmU4bMO7A-qSsY_zn1Z-36" edge="1">
          <mxGeometry width="50" height="50" relative="1" as="geometry">
            <mxPoint x="690" y="800" as="sourcePoint" />
            <mxPoint x="850" y="810" as="targetPoint" />
          </mxGeometry>
        </mxCell>
        <mxCell id="7cmU4bMO7A-qSsY_zn1Z-59" value="" style="endArrow=classic;html=1;rounded=0;entryX=0;entryY=0.5;entryDx=0;entryDy=0;" parent="1" edge="1">
          <mxGeometry width="50" height="50" relative="1" as="geometry">
            <mxPoint x="690" y="849.5" as="sourcePoint" />
            <mxPoint x="740" y="849.5" as="targetPoint" />
          </mxGeometry>
        </mxCell>
        <mxCell id="7cmU4bMO7A-qSsY_zn1Z-63" value="&lt;font style=&quot;font-size: 25px;&quot;&gt;M&lt;/font&gt;" style="text;html=1;strokeColor=none;fillColor=none;align=center;verticalAlign=middle;whiteSpace=wrap;rounded=0;" parent="1" vertex="1">
          <mxGeometry x="1010" y="340" width="60" height="30" as="geometry" />
        </mxCell>
        <mxCell id="7cmU4bMO7A-qSsY_zn1Z-64" value="&lt;span style=&quot;font-size: 25px;&quot;&gt;V&lt;/span&gt;" style="text;html=1;strokeColor=none;fillColor=none;align=center;verticalAlign=middle;whiteSpace=wrap;rounded=0;" parent="1" vertex="1">
          <mxGeometry x="520" y="340" width="60" height="30" as="geometry" />
        </mxCell>
        <mxCell id="7cmU4bMO7A-qSsY_zn1Z-65" value="&lt;span style=&quot;font-size: 25px;&quot;&gt;C&lt;/span&gt;" style="text;html=1;strokeColor=none;fillColor=none;align=center;verticalAlign=middle;whiteSpace=wrap;rounded=0;" parent="1" vertex="1">
          <mxGeometry x="770" y="340" width="60" height="30" as="geometry" />
        </mxCell>
        <mxCell id="7cmU4bMO7A-qSsY_zn1Z-67" style="edgeStyle=orthogonalEdgeStyle;rounded=0;orthogonalLoop=1;jettySize=auto;html=1;entryX=0.5;entryY=0;entryDx=0;entryDy=0;" parent="1" source="7cmU4bMO7A-qSsY_zn1Z-66" target="7cmU4bMO7A-qSsY_zn1Z-69" edge="1">
          <mxGeometry relative="1" as="geometry">
            <mxPoint x="723" y="1239" as="targetPoint" />
          </mxGeometry>
        </mxCell>
        <mxCell id="7cmU4bMO7A-qSsY_zn1Z-66" value="用户在form中输入利用AJAX提交信息" style="rounded=0;whiteSpace=wrap;html=1;" parent="1" vertex="1">
          <mxGeometry x="663" y="1140" width="120" height="55" as="geometry" />
        </mxCell>
        <mxCell id="7cmU4bMO7A-qSsY_zn1Z-73" style="edgeStyle=orthogonalEdgeStyle;rounded=0;orthogonalLoop=1;jettySize=auto;html=1;exitX=0.5;exitY=1;exitDx=0;exitDy=0;entryX=0.5;entryY=0;entryDx=0;entryDy=0;" parent="1" source="7cmU4bMO7A-qSsY_zn1Z-68" target="7cmU4bMO7A-qSsY_zn1Z-72" edge="1">
          <mxGeometry relative="1" as="geometry" />
        </mxCell>
        <mxCell id="7cmU4bMO7A-qSsY_zn1Z-75" style="edgeStyle=orthogonalEdgeStyle;rounded=0;orthogonalLoop=1;jettySize=auto;html=1;exitX=1;exitY=0.5;exitDx=0;exitDy=0;entryX=0;entryY=0.5;entryDx=0;entryDy=0;" parent="1" source="7cmU4bMO7A-qSsY_zn1Z-68" target="7cmU4bMO7A-qSsY_zn1Z-74" edge="1">
          <mxGeometry relative="1" as="geometry" />
        </mxCell>
        <mxCell id="7cmU4bMO7A-qSsY_zn1Z-68" value="xmlhttp.&lt;br&gt;onreadystatechange&lt;br&gt;判断登录成功与否" style="rhombus;whiteSpace=wrap;html=1;" parent="1" vertex="1">
          <mxGeometry x="631" y="1349" width="184" height="88" as="geometry" />
        </mxCell>
        <mxCell id="7cmU4bMO7A-qSsY_zn1Z-70" style="edgeStyle=orthogonalEdgeStyle;rounded=0;orthogonalLoop=1;jettySize=auto;html=1;" parent="1" source="7cmU4bMO7A-qSsY_zn1Z-69" edge="1">
          <mxGeometry relative="1" as="geometry">
            <mxPoint x="723" y="1347.4443766276045" as="targetPoint" />
          </mxGeometry>
        </mxCell>
        <mxCell id="7cmU4bMO7A-qSsY_zn1Z-69" value="LoginServlet调用User对象的函数进行登录判断，返回登录状态数LoginState" style="rounded=0;whiteSpace=wrap;html=1;" parent="1" vertex="1">
          <mxGeometry x="663" y="1242" width="120" height="60" as="geometry" />
        </mxCell>
        <mxCell id="7cmU4bMO7A-qSsY_zn1Z-72" value="告诉login.jsp进行跳转页面" style="rounded=0;whiteSpace=wrap;html=1;" parent="1" vertex="1">
          <mxGeometry x="663" y="1478" width="120" height="55" as="geometry" />
        </mxCell>
        <mxCell id="7cmU4bMO7A-qSsY_zn1Z-74" value="异步更新错误提示信息" style="rounded=0;whiteSpace=wrap;html=1;" parent="1" vertex="1">
          <mxGeometry x="886" y="1365.5" width="120" height="55" as="geometry" />
        </mxCell>
        <mxCell id="7cmU4bMO7A-qSsY_zn1Z-76" value="失败" style="text;html=1;strokeColor=none;fillColor=none;align=center;verticalAlign=middle;whiteSpace=wrap;rounded=0;" parent="1" vertex="1">
          <mxGeometry x="815" y="1361" width="60" height="30" as="geometry" />
        </mxCell>
        <mxCell id="7cmU4bMO7A-qSsY_zn1Z-77" value="成功" style="text;html=1;strokeColor=none;fillColor=none;align=center;verticalAlign=middle;whiteSpace=wrap;rounded=0;" parent="1" vertex="1">
          <mxGeometry x="728" y="1440" width="60" height="30" as="geometry" />
        </mxCell>
        <mxCell id="7cmU4bMO7A-qSsY_zn1Z-78" value="Ⅰ" style="text;html=1;strokeColor=none;fillColor=none;align=center;verticalAlign=middle;whiteSpace=wrap;rounded=0;" parent="1" vertex="1">
          <mxGeometry x="599" y="1152.5" width="26" height="29.5" as="geometry" />
        </mxCell>
        <mxCell id="7cmU4bMO7A-qSsY_zn1Z-79" value="Ⅱ" style="text;html=1;strokeColor=none;fillColor=none;align=center;verticalAlign=middle;whiteSpace=wrap;rounded=0;" parent="1" vertex="1">
          <mxGeometry x="599" y="1257.25" width="26" height="29.5" as="geometry" />
        </mxCell>
        <mxCell id="7cmU4bMO7A-qSsY_zn1Z-80" value="Ⅲ" style="text;html=1;strokeColor=none;fillColor=none;align=center;verticalAlign=middle;whiteSpace=wrap;rounded=0;" parent="1" vertex="1">
          <mxGeometry x="599" y="1382" width="26" height="29.5" as="geometry" />
        </mxCell>
        <mxCell id="7cmU4bMO7A-qSsY_zn1Z-81" value="Ⅳ" style="text;html=1;strokeColor=none;fillColor=none;align=center;verticalAlign=middle;whiteSpace=wrap;rounded=0;" parent="1" vertex="1">
          <mxGeometry x="936" y="1336" width="26" height="29.5" as="geometry" />
        </mxCell>
        <mxCell id="7cmU4bMO7A-qSsY_zn1Z-82" value="Ⅴ" style="text;html=1;strokeColor=none;fillColor=none;align=center;verticalAlign=middle;whiteSpace=wrap;rounded=0;" parent="1" vertex="1">
          <mxGeometry x="599" y="1488" width="26" height="29.5" as="geometry" />
        </mxCell>
        <mxCell id="7cmU4bMO7A-qSsY_zn1Z-85" style="edgeStyle=orthogonalEdgeStyle;rounded=0;orthogonalLoop=1;jettySize=auto;html=1;entryX=0.5;entryY=0;entryDx=0;entryDy=0;" parent="1" source="7cmU4bMO7A-qSsY_zn1Z-83" target="7cmU4bMO7A-qSsY_zn1Z-84" edge="1">
          <mxGeometry relative="1" as="geometry" />
        </mxCell>
        <mxCell id="7cmU4bMO7A-qSsY_zn1Z-83" value="发送请求" style="rounded=0;whiteSpace=wrap;html=1;" parent="1" vertex="1">
          <mxGeometry x="663" y="1617" width="120" height="60" as="geometry" />
        </mxCell>
        <mxCell id="7cmU4bMO7A-qSsY_zn1Z-86" style="edgeStyle=orthogonalEdgeStyle;rounded=0;orthogonalLoop=1;jettySize=auto;html=1;" parent="1" source="7cmU4bMO7A-qSsY_zn1Z-84" target="7cmU4bMO7A-qSsY_zn1Z-87" edge="1">
          <mxGeometry relative="1" as="geometry">
            <mxPoint x="723" y="1831.3333333333335" as="targetPoint" />
          </mxGeometry>
        </mxCell>
        <mxCell id="7cmU4bMO7A-qSsY_zn1Z-84" value="利用Servlet获取数据，页面跳转" style="rounded=0;whiteSpace=wrap;html=1;" parent="1" vertex="1">
          <mxGeometry x="663" y="1724" width="120" height="60" as="geometry" />
        </mxCell>
        <mxCell id="7cmU4bMO7A-qSsY_zn1Z-87" value="处理，加载数据&lt;br&gt;（JSTL的forEach循环）" style="rounded=0;whiteSpace=wrap;html=1;" parent="1" vertex="1">
          <mxGeometry x="663" y="1823.0033333333336" width="120" height="60" as="geometry" />
        </mxCell>
        <mxCell id="7cmU4bMO7A-qSsY_zn1Z-88" value="" style="rounded=0;whiteSpace=wrap;html=1;" parent="1" vertex="1">
          <mxGeometry x="1110" y="1678" width="567" height="373" as="geometry" />
        </mxCell>
        <mxCell id="7cmU4bMO7A-qSsY_zn1Z-89" value="&lt;font style=&quot;font-size: 40px;&quot;&gt;Comment&lt;/font&gt;" style="rounded=1;whiteSpace=wrap;html=1;" parent="1" vertex="1">
          <mxGeometry x="1312" y="1704" width="304" height="129" as="geometry" />
        </mxCell>
        <mxCell id="7cmU4bMO7A-qSsY_zn1Z-91" value="" style="rounded=0;whiteSpace=wrap;html=1;fillColor=#fad9d5;strokeColor=#ae4132;" parent="1" vertex="1">
          <mxGeometry x="1143" y="1849" width="509.25" height="181" as="geometry" />
        </mxCell>
        <mxCell id="7cmU4bMO7A-qSsY_zn1Z-90" value="&lt;font style=&quot;font-size: 40px;&quot;&gt;Feedback&lt;/font&gt;" style="rounded=1;whiteSpace=wrap;html=1;" parent="1" vertex="1">
          <mxGeometry x="1321" y="1869" width="272" height="55" as="geometry" />
        </mxCell>
        <mxCell id="7cmU4bMO7A-qSsY_zn1Z-94" value="&lt;font style=&quot;font-size: 40px;&quot;&gt;Feedback&lt;/font&gt;" style="rounded=1;whiteSpace=wrap;html=1;" parent="1" vertex="1">
          <mxGeometry x="1321" y="1955" width="272" height="55" as="geometry" />
        </mxCell>
        <mxCell id="7cmU4bMO7A-qSsY_zn1Z-95" value="&lt;span style=&quot;font-size: 40px;&quot;&gt;······&lt;/span&gt;" style="text;html=1;strokeColor=none;fillColor=none;align=center;verticalAlign=middle;whiteSpace=wrap;rounded=0;" parent="1" vertex="1">
          <mxGeometry x="1427" y="1923.5" width="60" height="30" as="geometry" />
        </mxCell>
        <mxCell id="7cmU4bMO7A-qSsY_zn1Z-104" value="&lt;span style=&quot;font-size: 40px;&quot;&gt;forEach(1)&lt;/span&gt;" style="text;html=1;strokeColor=none;fillColor=none;align=center;verticalAlign=middle;whiteSpace=wrap;rounded=0;" parent="1" vertex="1">
          <mxGeometry x="1058" y="1584" width="213" height="109" as="geometry" />
        </mxCell>
        <mxCell id="7cmU4bMO7A-qSsY_zn1Z-105" value="&lt;span style=&quot;font-size: 40px;&quot;&gt;forEach(2)&lt;/span&gt;" style="text;html=1;strokeColor=none;fillColor=none;align=center;verticalAlign=middle;whiteSpace=wrap;rounded=0;" parent="1" vertex="1">
          <mxGeometry x="1110" y="1799" width="213" height="109" as="geometry" />
        </mxCell>
        <mxCell id="7cmU4bMO7A-qSsY_zn1Z-107" value="" style="rounded=0;whiteSpace=wrap;html=1;" parent="1" vertex="1">
          <mxGeometry x="1107" y="2083" width="567" height="373" as="geometry" />
        </mxCell>
        <mxCell id="7cmU4bMO7A-qSsY_zn1Z-108" value="&lt;font style=&quot;font-size: 40px;&quot;&gt;Comment&lt;/font&gt;" style="rounded=1;whiteSpace=wrap;html=1;" parent="1" vertex="1">
          <mxGeometry x="1309" y="2109" width="304" height="129" as="geometry" />
        </mxCell>
        <mxCell id="7cmU4bMO7A-qSsY_zn1Z-109" value="" style="rounded=0;whiteSpace=wrap;html=1;fillColor=#fad9d5;strokeColor=#ae4132;" parent="1" vertex="1">
          <mxGeometry x="1140" y="2254" width="509.25" height="181" as="geometry" />
        </mxCell>
        <mxCell id="7cmU4bMO7A-qSsY_zn1Z-110" value="&lt;font style=&quot;font-size: 40px;&quot;&gt;Feedback&lt;/font&gt;" style="rounded=1;whiteSpace=wrap;html=1;" parent="1" vertex="1">
          <mxGeometry x="1318" y="2274" width="272" height="55" as="geometry" />
        </mxCell>
        <mxCell id="7cmU4bMO7A-qSsY_zn1Z-111" value="&lt;font style=&quot;font-size: 40px;&quot;&gt;Feedback&lt;/font&gt;" style="rounded=1;whiteSpace=wrap;html=1;" parent="1" vertex="1">
          <mxGeometry x="1318" y="2360" width="272" height="55" as="geometry" />
        </mxCell>
        <mxCell id="7cmU4bMO7A-qSsY_zn1Z-112" value="&lt;span style=&quot;font-size: 40px;&quot;&gt;······&lt;/span&gt;" style="text;html=1;strokeColor=none;fillColor=none;align=center;verticalAlign=middle;whiteSpace=wrap;rounded=0;" parent="1" vertex="1">
          <mxGeometry x="1424" y="2328.5" width="60" height="30" as="geometry" />
        </mxCell>
        <mxCell id="7cmU4bMO7A-qSsY_zn1Z-113" value="&lt;span style=&quot;font-size: 40px;&quot;&gt;forEach(2)&lt;/span&gt;" style="text;html=1;strokeColor=none;fillColor=none;align=center;verticalAlign=middle;whiteSpace=wrap;rounded=0;" parent="1" vertex="1">
          <mxGeometry x="1107" y="2204" width="213" height="109" as="geometry" />
        </mxCell>
        <mxCell id="7cmU4bMO7A-qSsY_zn1Z-114" value="UserComments" style="rounded=1;whiteSpace=wrap;html=1;" parent="1" vertex="1">
          <mxGeometry x="1811" y="1069.88" width="120" height="107.5" as="geometry" />
        </mxCell>
        <mxCell id="7cmU4bMO7A-qSsY_zn1Z-115" value="Feedback" style="rounded=1;whiteSpace=wrap;html=1;" parent="1" vertex="1">
          <mxGeometry x="1809" y="1214.88" width="120" height="107.5" as="geometry" />
        </mxCell>
        <mxCell id="7cmU4bMO7A-qSsY_zn1Z-116" style="edgeStyle=orthogonalEdgeStyle;rounded=0;orthogonalLoop=1;jettySize=auto;html=1;exitX=1;exitY=0.5;exitDx=0;exitDy=0;entryX=0;entryY=0.5;entryDx=0;entryDy=0;" parent="1" source="7cmU4bMO7A-qSsY_zn1Z-117" target="7cmU4bMO7A-qSsY_zn1Z-120" edge="1">
          <mxGeometry relative="1" as="geometry" />
        </mxCell>
        <mxCell id="7cmU4bMO7A-qSsY_zn1Z-117" value="评论界面&lt;br&gt;发表留言、回复留言、留言维护等功能" style="rounded=0;whiteSpace=wrap;html=1;" parent="1" vertex="1">
          <mxGeometry x="1058" y="1086.75" width="180" height="210" as="geometry" />
        </mxCell>
        <mxCell id="7cmU4bMO7A-qSsY_zn1Z-118" value="Comment.jsp" style="text;html=1;strokeColor=none;fillColor=none;align=center;verticalAlign=middle;whiteSpace=wrap;rounded=0;" parent="1" vertex="1">
          <mxGeometry x="1118" y="1056.75" width="60" height="30" as="geometry" />
        </mxCell>
        <mxCell id="7cmU4bMO7A-qSsY_zn1Z-119" value="AddCommentServlet" style="rounded=1;whiteSpace=wrap;html=1;" parent="1" vertex="1">
          <mxGeometry x="1338" y="1096.75" width="120" height="40" as="geometry" />
        </mxCell>
        <mxCell id="7cmU4bMO7A-qSsY_zn1Z-120" value="AddFeedbackServlet" style="rounded=1;whiteSpace=wrap;html=1;" parent="1" vertex="1">
          <mxGeometry x="1338" y="1246.75" width="120" height="40" as="geometry" />
        </mxCell>
        <mxCell id="7cmU4bMO7A-qSsY_zn1Z-121" value="ComDataUpdate" style="rounded=1;whiteSpace=wrap;html=1;" parent="1" vertex="1">
          <mxGeometry x="1338" y="1196.75" width="120" height="40" as="geometry" />
        </mxCell>
        <mxCell id="7cmU4bMO7A-qSsY_zn1Z-122" value="DeleteCommentServlet&lt;br&gt;" style="rounded=1;whiteSpace=wrap;html=1;" parent="1" vertex="1">
          <mxGeometry x="1338" y="1146.75" width="120" height="40" as="geometry" />
        </mxCell>
        <mxCell id="7cmU4bMO7A-qSsY_zn1Z-123" value="FeedbackDAO" style="rounded=1;whiteSpace=wrap;html=1;" parent="1" vertex="1">
          <mxGeometry x="1581" y="1223.63" width="120" height="90" as="geometry" />
        </mxCell>
        <mxCell id="7cmU4bMO7A-qSsY_zn1Z-124" value="CommentDAO" style="rounded=1;whiteSpace=wrap;html=1;" parent="1" vertex="1">
          <mxGeometry x="1581" y="1078.63" width="120" height="90" as="geometry" />
        </mxCell>
        <mxCell id="7cmU4bMO7A-qSsY_zn1Z-125" value="" style="endArrow=classic;startArrow=classic;html=1;rounded=0;exitX=1;exitY=0.5;exitDx=0;exitDy=0;entryX=0;entryY=0.25;entryDx=0;entryDy=0;" parent="1" source="7cmU4bMO7A-qSsY_zn1Z-119" target="7cmU4bMO7A-qSsY_zn1Z-124" edge="1">
          <mxGeometry width="50" height="50" relative="1" as="geometry">
            <mxPoint x="1598" y="1326.75" as="sourcePoint" />
            <mxPoint x="1558" y="1196.75" as="targetPoint" />
          </mxGeometry>
        </mxCell>
        <mxCell id="7cmU4bMO7A-qSsY_zn1Z-126" value="" style="endArrow=classic;startArrow=classic;html=1;rounded=0;entryX=0;entryY=0.25;entryDx=0;entryDy=0;exitX=1;exitY=0.75;exitDx=0;exitDy=0;" parent="1" source="7cmU4bMO7A-qSsY_zn1Z-122" target="7cmU4bMO7A-qSsY_zn1Z-123" edge="1">
          <mxGeometry width="50" height="50" relative="1" as="geometry">
            <mxPoint x="1468" y="1186.75" as="sourcePoint" />
            <mxPoint x="1648" y="1276.75" as="targetPoint" />
          </mxGeometry>
        </mxCell>
        <mxCell id="7cmU4bMO7A-qSsY_zn1Z-127" value="" style="endArrow=classic;startArrow=classic;html=1;rounded=0;exitX=1;exitY=0.25;exitDx=0;exitDy=0;entryX=0;entryY=0.5;entryDx=0;entryDy=0;" parent="1" source="7cmU4bMO7A-qSsY_zn1Z-122" target="7cmU4bMO7A-qSsY_zn1Z-124" edge="1">
          <mxGeometry width="50" height="50" relative="1" as="geometry">
            <mxPoint x="1598" y="1326.75" as="sourcePoint" />
            <mxPoint x="1648" y="1276.75" as="targetPoint" />
          </mxGeometry>
        </mxCell>
        <mxCell id="7cmU4bMO7A-qSsY_zn1Z-128" value="" style="endArrow=classic;startArrow=classic;html=1;rounded=0;entryX=0;entryY=0.5;entryDx=0;entryDy=0;exitX=1;exitY=0.75;exitDx=0;exitDy=0;" parent="1" source="7cmU4bMO7A-qSsY_zn1Z-121" target="7cmU4bMO7A-qSsY_zn1Z-123" edge="1">
          <mxGeometry width="50" height="50" relative="1" as="geometry">
            <mxPoint x="1478" y="1236.75" as="sourcePoint" />
            <mxPoint x="1648" y="1276.75" as="targetPoint" />
          </mxGeometry>
        </mxCell>
        <mxCell id="7cmU4bMO7A-qSsY_zn1Z-129" value="" style="endArrow=classic;startArrow=classic;html=1;rounded=0;exitX=1;exitY=0.25;exitDx=0;exitDy=0;entryX=0;entryY=0.75;entryDx=0;entryDy=0;" parent="1" source="7cmU4bMO7A-qSsY_zn1Z-121" target="7cmU4bMO7A-qSsY_zn1Z-124" edge="1">
          <mxGeometry width="50" height="50" relative="1" as="geometry">
            <mxPoint x="1598" y="1326.75" as="sourcePoint" />
            <mxPoint x="1648" y="1276.75" as="targetPoint" />
          </mxGeometry>
        </mxCell>
        <mxCell id="7cmU4bMO7A-qSsY_zn1Z-130" value="" style="endArrow=classic;startArrow=classic;html=1;rounded=0;exitX=1;exitY=0.5;exitDx=0;exitDy=0;entryX=0;entryY=0.75;entryDx=0;entryDy=0;" parent="1" source="7cmU4bMO7A-qSsY_zn1Z-120" target="7cmU4bMO7A-qSsY_zn1Z-123" edge="1">
          <mxGeometry width="50" height="50" relative="1" as="geometry">
            <mxPoint x="1598" y="1326.75" as="sourcePoint" />
            <mxPoint x="1648" y="1276.75" as="targetPoint" />
          </mxGeometry>
        </mxCell>
        <mxCell id="7cmU4bMO7A-qSsY_zn1Z-131" value="" style="endArrow=classic;startArrow=classic;html=1;rounded=0;exitX=1;exitY=0.5;exitDx=0;exitDy=0;entryX=0;entryY=0.5;entryDx=0;entryDy=0;" parent="1" source="7cmU4bMO7A-qSsY_zn1Z-124" target="7cmU4bMO7A-qSsY_zn1Z-114" edge="1">
          <mxGeometry width="50" height="50" relative="1" as="geometry">
            <mxPoint x="1351" y="1608.63" as="sourcePoint" />
            <mxPoint x="1401" y="1558.63" as="targetPoint" />
          </mxGeometry>
        </mxCell>
        <mxCell id="7cmU4bMO7A-qSsY_zn1Z-132" value="" style="endArrow=classic;startArrow=classic;html=1;rounded=0;entryX=-0.003;entryY=0.435;entryDx=0;entryDy=0;entryPerimeter=0;" parent="1" edge="1">
          <mxGeometry width="50" height="50" relative="1" as="geometry">
            <mxPoint x="1701" y="1269.63" as="sourcePoint" />
            <mxPoint x="1811" y="1269.13" as="targetPoint" />
          </mxGeometry>
        </mxCell>
        <mxCell id="7cmU4bMO7A-qSsY_zn1Z-133" value="" style="endArrow=classic;startArrow=classic;html=1;rounded=0;exitX=0;exitY=0.5;exitDx=0;exitDy=0;entryX=1;entryY=0.5;entryDx=0;entryDy=0;" parent="1" source="7cmU4bMO7A-qSsY_zn1Z-119" target="7cmU4bMO7A-qSsY_zn1Z-117" edge="1">
          <mxGeometry width="50" height="50" relative="1" as="geometry">
            <mxPoint x="1398" y="1226.75" as="sourcePoint" />
            <mxPoint x="1448" y="1176.75" as="targetPoint" />
            <Array as="points">
              <mxPoint x="1288" y="1116.75" />
              <mxPoint x="1288" y="1191.75" />
            </Array>
          </mxGeometry>
        </mxCell>
        <mxCell id="7cmU4bMO7A-qSsY_zn1Z-134" value="" style="endArrow=classic;html=1;rounded=0;entryX=0;entryY=0.5;entryDx=0;entryDy=0;" parent="1" target="7cmU4bMO7A-qSsY_zn1Z-122" edge="1">
          <mxGeometry width="50" height="50" relative="1" as="geometry">
            <mxPoint x="1288" y="1166.75" as="sourcePoint" />
            <mxPoint x="1448" y="1176.75" as="targetPoint" />
          </mxGeometry>
        </mxCell>
        <mxCell id="7cmU4bMO7A-qSsY_zn1Z-135" value="" style="endArrow=classic;html=1;rounded=0;entryX=0;entryY=0.5;entryDx=0;entryDy=0;" parent="1" edge="1">
          <mxGeometry width="50" height="50" relative="1" as="geometry">
            <mxPoint x="1288" y="1216.25" as="sourcePoint" />
            <mxPoint x="1338" y="1216.25" as="targetPoint" />
          </mxGeometry>
        </mxCell>
        <mxCell id="PiPtO8VSAvtlJHLGq4BD-1" value="" style="rounded=0;whiteSpace=wrap;html=1;" vertex="1" parent="1">
          <mxGeometry x="734" y="2869.75" width="504" height="384" as="geometry" />
        </mxCell>
        <mxCell id="PiPtO8VSAvtlJHLGq4BD-19" value="" style="rounded=1;whiteSpace=wrap;html=1;" vertex="1" parent="1">
          <mxGeometry x="996" y="2887.75" width="219" height="348" as="geometry" />
        </mxCell>
        <mxCell id="PiPtO8VSAvtlJHLGq4BD-25" style="edgeStyle=orthogonalEdgeStyle;rounded=0;orthogonalLoop=1;jettySize=auto;html=1;exitX=0;exitY=0.25;exitDx=0;exitDy=0;entryX=1;entryY=0.5;entryDx=0;entryDy=0;" edge="1" parent="1" source="PiPtO8VSAvtlJHLGq4BD-2" target="PiPtO8VSAvtlJHLGq4BD-24">
          <mxGeometry relative="1" as="geometry" />
        </mxCell>
        <mxCell id="PiPtO8VSAvtlJHLGq4BD-2" value="Form表单获取用户输入的数据" style="rounded=1;whiteSpace=wrap;html=1;" vertex="1" parent="1">
          <mxGeometry x="756" y="2888.75" width="219" height="348" as="geometry" />
        </mxCell>
        <mxCell id="PiPtO8VSAvtlJHLGq4BD-5" value="JavaScript函数对于用户输入的表单数据进行判断" style="text;html=1;strokeColor=none;fillColor=none;align=center;verticalAlign=middle;whiteSpace=wrap;rounded=0;" vertex="1" parent="1">
          <mxGeometry x="1025.5" y="2919.75" width="150" height="30" as="geometry" />
        </mxCell>
        <mxCell id="PiPtO8VSAvtlJHLGq4BD-12" style="edgeStyle=orthogonalEdgeStyle;rounded=0;orthogonalLoop=1;jettySize=auto;html=1;exitX=0.5;exitY=1;exitDx=0;exitDy=0;entryX=0.5;entryY=0;entryDx=0;entryDy=0;" edge="1" parent="1" source="PiPtO8VSAvtlJHLGq4BD-6" target="PiPtO8VSAvtlJHLGq4BD-9">
          <mxGeometry relative="1" as="geometry" />
        </mxCell>
        <mxCell id="PiPtO8VSAvtlJHLGq4BD-6" value="&lt;font style=&quot;font-size: 11px;&quot;&gt;获取表单数据&lt;br style=&quot;font-size: 11px;&quot;&gt;var a = getElementId()&lt;/font&gt;" style="rounded=0;whiteSpace=wrap;html=1;" vertex="1" parent="1">
          <mxGeometry x="1038" y="2978.75" width="129" height="37" as="geometry" />
        </mxCell>
        <mxCell id="PiPtO8VSAvtlJHLGq4BD-9" value="if+正则表达式进行判断" style="rhombus;whiteSpace=wrap;html=1;" vertex="1" parent="1">
          <mxGeometry x="1033" y="3053.75" width="139" height="80" as="geometry" />
        </mxCell>
        <mxCell id="PiPtO8VSAvtlJHLGq4BD-13" value="" style="endArrow=classic;html=1;rounded=0;exitX=1;exitY=0.5;exitDx=0;exitDy=0;entryX=0;entryY=0.5;entryDx=0;entryDy=0;" edge="1" parent="1" source="PiPtO8VSAvtlJHLGq4BD-9" target="PiPtO8VSAvtlJHLGq4BD-15">
          <mxGeometry width="50" height="50" relative="1" as="geometry">
            <mxPoint x="979.5" y="3086.75" as="sourcePoint" />
            <mxPoint x="1297" y="3090.75" as="targetPoint" />
          </mxGeometry>
        </mxCell>
        <mxCell id="PiPtO8VSAvtlJHLGq4BD-14" value="" style="endArrow=classic;html=1;rounded=0;exitX=0.5;exitY=1;exitDx=0;exitDy=0;entryX=0.5;entryY=0;entryDx=0;entryDy=0;" edge="1" parent="1" source="PiPtO8VSAvtlJHLGq4BD-9" target="PiPtO8VSAvtlJHLGq4BD-17">
          <mxGeometry width="50" height="50" relative="1" as="geometry">
            <mxPoint x="979.5" y="3086.75" as="sourcePoint" />
            <mxPoint x="1102.5" y="3167.75" as="targetPoint" />
          </mxGeometry>
        </mxCell>
        <mxCell id="PiPtO8VSAvtlJHLGq4BD-15" value="" style="rounded=0;whiteSpace=wrap;html=1;" vertex="1" parent="1">
          <mxGeometry x="1339" y="2884.75" width="475" height="369" as="geometry" />
        </mxCell>
        <mxCell id="PiPtO8VSAvtlJHLGq4BD-16" value="符合" style="text;html=1;strokeColor=none;fillColor=none;align=center;verticalAlign=middle;whiteSpace=wrap;rounded=0;" vertex="1" parent="1">
          <mxGeometry x="1255" y="3047.75" width="60" height="30" as="geometry" />
        </mxCell>
        <mxCell id="PiPtO8VSAvtlJHLGq4BD-17" value="更新页面显示提示信息" style="rounded=0;whiteSpace=wrap;html=1;" vertex="1" parent="1">
          <mxGeometry x="1042.5" y="3167.75" width="120" height="37" as="geometry" />
        </mxCell>
        <mxCell id="PiPtO8VSAvtlJHLGq4BD-18" value="不符合" style="text;html=1;strokeColor=none;fillColor=none;align=center;verticalAlign=middle;whiteSpace=wrap;rounded=0;" vertex="1" parent="1">
          <mxGeometry x="1109.5" y="3135.75" width="60" height="26" as="geometry" />
        </mxCell>
        <mxCell id="PiPtO8VSAvtlJHLGq4BD-20" value="利用AJAX连接后端，提交表单信息，并让后端在数据库中更新用户信息" style="text;html=1;strokeColor=none;fillColor=none;align=center;verticalAlign=middle;whiteSpace=wrap;rounded=0;" vertex="1" parent="1">
          <mxGeometry x="1389" y="2889.75" width="401.5" height="30" as="geometry" />
        </mxCell>
        <mxCell id="PiPtO8VSAvtlJHLGq4BD-21" value="变量，常量定义var,let,const" style="ellipse;whiteSpace=wrap;html=1;" vertex="1" parent="1">
          <mxGeometry x="1169.5" y="2742.75" width="120" height="80" as="geometry" />
        </mxCell>
        <mxCell id="PiPtO8VSAvtlJHLGq4BD-23" value="" style="endArrow=classic;html=1;rounded=0;exitX=0.75;exitY=0;exitDx=0;exitDy=0;entryX=0.301;entryY=0.96;entryDx=0;entryDy=0;entryPerimeter=0;" edge="1" parent="1" source="PiPtO8VSAvtlJHLGq4BD-6" target="PiPtO8VSAvtlJHLGq4BD-21">
          <mxGeometry width="50" height="50" relative="1" as="geometry">
            <mxPoint x="1268" y="3189.75" as="sourcePoint" />
            <mxPoint x="1318" y="3139.75" as="targetPoint" />
          </mxGeometry>
        </mxCell>
        <mxCell id="PiPtO8VSAvtlJHLGq4BD-24" value="HTML+CSS&lt;br&gt;表单按钮事件&lt;br&gt;&lt;div&gt;动态时间: setTimeout() ,setlntelVal()&lt;/div&gt;&lt;div&gt;onload onclick&lt;/div&gt;" style="ellipse;whiteSpace=wrap;html=1;" vertex="1" parent="1">
          <mxGeometry x="587" y="2934.75" width="120" height="80" as="geometry" />
        </mxCell>
        <mxCell id="PiPtO8VSAvtlJHLGq4BD-26" value="" style="endArrow=classic;html=1;rounded=0;exitX=0;exitY=1;exitDx=0;exitDy=0;entryX=0.5;entryY=0;entryDx=0;entryDy=0;" edge="1" parent="1" source="PiPtO8VSAvtlJHLGq4BD-9" target="PiPtO8VSAvtlJHLGq4BD-27">
          <mxGeometry width="50" height="50" relative="1" as="geometry">
            <mxPoint x="1268" y="3189.75" as="sourcePoint" />
            <mxPoint x="1010" y="3298.75" as="targetPoint" />
          </mxGeometry>
        </mxCell>
        <mxCell id="PiPtO8VSAvtlJHLGq4BD-27" value="正则表达式&lt;br&gt;if判断" style="ellipse;whiteSpace=wrap;html=1;" vertex="1" parent="1">
          <mxGeometry x="905.5" y="3272.75" width="120" height="80" as="geometry" />
        </mxCell>
        <mxCell id="PiPtO8VSAvtlJHLGq4BD-28" value="doPost（）函数，创建数据库连接类的对象，调用其中函数完成用户注册信息像数据库中的提交" style="rounded=1;whiteSpace=wrap;html=1;" vertex="1" parent="1">
          <mxGeometry x="1371" y="2961.75" width="203" height="227.5" as="geometry" />
        </mxCell>
        <mxCell id="PiPtO8VSAvtlJHLGq4BD-29" value="SignUpServlet" style="text;html=1;strokeColor=none;fillColor=none;align=center;verticalAlign=middle;whiteSpace=wrap;rounded=0;" vertex="1" parent="1">
          <mxGeometry x="1442.5" y="2934.75" width="60" height="30" as="geometry" />
        </mxCell>
        <mxCell id="PiPtO8VSAvtlJHLGq4BD-31" value="用于连接数据库并执行SQL语句的类" style="rounded=1;whiteSpace=wrap;html=1;" vertex="1" parent="1">
          <mxGeometry x="1586" y="2961.75" width="203" height="227.5" as="geometry" />
        </mxCell>
        <mxCell id="PiPtO8VSAvtlJHLGq4BD-32" value="UserDAO" style="text;html=1;strokeColor=none;fillColor=none;align=center;verticalAlign=middle;whiteSpace=wrap;rounded=0;" vertex="1" parent="1">
          <mxGeometry x="1659" y="2931.75" width="60" height="30" as="geometry" />
        </mxCell>
        <mxCell id="PiPtO8VSAvtlJHLGq4BD-33" value="User类，用于存储数据库中的数据" style="rounded=1;whiteSpace=wrap;html=1;" vertex="1" parent="1">
          <mxGeometry x="1593" y="3198" width="192" height="50" as="geometry" />
        </mxCell>
        <mxCell id="PiPtO8VSAvtlJHLGq4BD-34" value="" style="endArrow=classic;html=1;rounded=0;exitX=1;exitY=0.5;exitDx=0;exitDy=0;entryX=0;entryY=0.5;entryDx=0;entryDy=0;" edge="1" parent="1" source="PiPtO8VSAvtlJHLGq4BD-31" target="PiPtO8VSAvtlJHLGq4BD-36">
          <mxGeometry width="50" height="50" relative="1" as="geometry">
            <mxPoint x="1362" y="3113.75" as="sourcePoint" />
            <mxPoint x="1946" y="3075.75" as="targetPoint" />
          </mxGeometry>
        </mxCell>
        <mxCell id="PiPtO8VSAvtlJHLGq4BD-36" value="数据库" style="rounded=0;whiteSpace=wrap;html=1;" vertex="1" parent="1">
          <mxGeometry x="1907" y="2884.75" width="201" height="369" as="geometry" />
        </mxCell>
        <mxCell id="PiPtO8VSAvtlJHLGq4BD-37" value="" style="endArrow=classic;html=1;rounded=0;exitX=0.25;exitY=1;exitDx=0;exitDy=0;entryX=0.5;entryY=0;entryDx=0;entryDy=0;" edge="1" parent="1" source="PiPtO8VSAvtlJHLGq4BD-28" target="PiPtO8VSAvtlJHLGq4BD-38">
          <mxGeometry width="50" height="50" relative="1" as="geometry">
            <mxPoint x="1362" y="3113.75" as="sourcePoint" />
            <mxPoint x="1388" y="3327.75" as="targetPoint" />
          </mxGeometry>
        </mxCell>
        <mxCell id="PiPtO8VSAvtlJHLGq4BD-38" value="Servlet+XML" style="ellipse;whiteSpace=wrap;html=1;" vertex="1" parent="1">
          <mxGeometry x="1315" y="3274.75" width="120" height="80" as="geometry" />
        </mxCell>
        <mxCell id="PiPtO8VSAvtlJHLGq4BD-39" value="JDBC" style="ellipse;whiteSpace=wrap;html=1;" vertex="1" parent="1">
          <mxGeometry x="1725" y="3269.75" width="120" height="80" as="geometry" />
        </mxCell>
        <mxCell id="PiPtO8VSAvtlJHLGq4BD-41" value="" style="endArrow=classic;html=1;rounded=0;exitX=0.75;exitY=1;exitDx=0;exitDy=0;entryX=0.5;entryY=0;entryDx=0;entryDy=0;" edge="1" parent="1" source="PiPtO8VSAvtlJHLGq4BD-31" target="PiPtO8VSAvtlJHLGq4BD-39">
          <mxGeometry width="50" height="50" relative="1" as="geometry">
            <mxPoint x="1362" y="3113.75" as="sourcePoint" />
            <mxPoint x="1412" y="3063.75" as="targetPoint" />
          </mxGeometry>
        </mxCell>
        <mxCell id="PiPtO8VSAvtlJHLGq4BD-46" value="&lt;font style=&quot;font-size: 25px;&quot;&gt;V&lt;/font&gt;" style="text;html=1;strokeColor=none;fillColor=none;align=center;verticalAlign=middle;whiteSpace=wrap;rounded=0;" vertex="1" parent="1">
          <mxGeometry x="573" y="2742.75" width="60" height="30" as="geometry" />
        </mxCell>
        <mxCell id="PiPtO8VSAvtlJHLGq4BD-48" style="edgeStyle=orthogonalEdgeStyle;rounded=0;orthogonalLoop=1;jettySize=auto;html=1;exitX=0.5;exitY=1;exitDx=0;exitDy=0;" edge="1" parent="1" source="PiPtO8VSAvtlJHLGq4BD-46" target="PiPtO8VSAvtlJHLGq4BD-46">
          <mxGeometry relative="1" as="geometry" />
        </mxCell>
        <mxCell id="PiPtO8VSAvtlJHLGq4BD-50" value="&lt;span style=&quot;font-size: 25px;&quot;&gt;C&lt;/span&gt;" style="text;html=1;strokeColor=none;fillColor=none;align=center;verticalAlign=middle;whiteSpace=wrap;rounded=0;" vertex="1" parent="1">
          <mxGeometry x="996" y="2742.75" width="60" height="30" as="geometry" />
        </mxCell>
        <mxCell id="PiPtO8VSAvtlJHLGq4BD-51" value="&lt;span style=&quot;font-size: 25px;&quot;&gt;M&lt;/span&gt;" style="text;html=1;strokeColor=none;fillColor=none;align=center;verticalAlign=middle;whiteSpace=wrap;rounded=0;" vertex="1" parent="1">
          <mxGeometry x="1593" y="2742.75" width="60" height="30" as="geometry" />
        </mxCell>
        <mxCell id="PiPtO8VSAvtlJHLGq4BD-52" style="edgeStyle=orthogonalEdgeStyle;rounded=0;orthogonalLoop=1;jettySize=auto;html=1;exitX=0.75;exitY=1;exitDx=0;exitDy=0;entryX=0.744;entryY=0.838;entryDx=0;entryDy=0;entryPerimeter=0;" edge="1" parent="1" source="PiPtO8VSAvtlJHLGq4BD-32" target="PiPtO8VSAvtlJHLGq4BD-32">
          <mxGeometry relative="1" as="geometry" />
        </mxCell>
      </root>
    </mxGraphModel>
  </diagram>
</mxfile>
